<?xml version="1.0" encoding="UTF-8"?>
<svg id="_Слой_2" data-name=" Слой 2" xmlns="http://www.w3.org/2000/svg" viewBox="0 0 48.89 41.36">
  <defs>
    <style>
      .cls-1 {
        fill: #aaa9a9;
      }

      .cls-1, .cls-2, .cls-3, .cls-4, .cls-5, .cls-6, .cls-7, .cls-8, .cls-9, .cls-10, .cls-11, .cls-12, .cls-13 {
        stroke: #000;
        stroke-miterlimit: 10;
        stroke-width: .25px;
      }

      .cls-2 {
        fill: #875000;
      }

      .cls-3 {
        fill: #190d07;
      }

      .cls-4 {
        fill: #ffc408;
      }

      .cls-5 {
        fill: #721a19;
      }

      .cls-6 {
        fill: none;
      }

      .cls-7 {
        fill: #aa6b43;
      }

      .cls-8 {
        fill: #6d510b;
      }

      .cls-14 {
        opacity: 0;
      }

      .cls-9 {
        fill: #07160e;
      }

      .cls-10 {
        fill: #1c1703;
      }

      .cls-11 {
        fill: #fff;
      }

      .cls-12 {
        fill: #ddb40a;
      }

      .cls-13 {
        fill: #7f3a18;
      }
    </style>
  </defs>
  <g id="_Слой_3" data-name=" Слой 3" class="cls-14">
    <rect class="cls-11" x=".12" y=".12" width="48.64" height="41.11" rx="12" ry="12"/>
  </g>
  <g id="_Шаблон" data-name=" Шаблон">
    <path class="cls-4" d="M31.12,28.06l-.19,1.06s.15-.43-.09,0l-.23.43s.09-.17-.15.13l-.23.3c-2.49,0-2.03-.15-2.49,0,0,0,3.25.15,2.33.51,0,0-2.69.72-2.69.91l2.83-.53c-.62,2.57-.85,2.32-.62,2.57l1.06-2.43v-.53l.47-.98s.74.11.96-.06c.22-.17-.87-.26-.87-.26l.23-1.25"/>
  </g>
  <g id="_Слой_2-2" data-name=" Слой 2-2">
    <path class="cls-4" d="M27.76,28.04l-.13,1.07s.12-.43-.08,0l-.21.44s.08-.17-.14.14l-.22.31c-2.49.14-2.04-.04-2.49.14,0,0,3.26-.04,2.35.38,0,0-2.64.88-2.63,1.07l2.79-.69c-.47,2.61-.72,2.36-.47,2.61l.92-2.48-.03-.53.41-1s.75.06.95-.12-.89-.2-.89-.2l.16-1.26"/>
    <path class="cls-12" d="M3.53,11.82s.7-1.53,2.43-1.53,2.43-.41,2.43-.41c0,0-.54,1.5,0,1.76s0,.38,2.71,1.18c0,0,.13.29.93,0l-.8.29s-2.11.1-4.37-.7c0,0-2.81-.89-3.16-.29s-.16-.29-.16-.29h-.01Z"/>
    <path class="cls-12" d="M6.86,12.39c-.29.25-.73.59-1.31.88-.85.43-1.52.51-1.53.78,0,.12.12.29.7.51.97.43,2.24.89,3.76,1.18,1.06.2,2.02.28,2.85.29-.05-.29-.08-.7.01-1.19.18-.91.7-1.5.95-1.74-1.91.23-2.82.46-3.29.63-.13.05-.54.21-1.05.16-.17-.02-.31-.06-.44-.1-.09-.03-.17-.06-.23-.09.06-.13.15-.29.29-.45.21-.25.43-.4.59-.49"/>
    <path class="cls-5" d="M12.02,12.81s3.06-.93,3.5-1.44,3.11,1.34,3.11,1.34l1.95.73s1.56.67,3.51,0,.38-1.72-.89-2.68-4.34-.54-4.34-.54c0,0-3.03-1.56-2.01-2.49,1.02-.93,1.63-.45,1.63-.45.61-.29,1.44.83,1.44.83,0,0,.8-.06.77-1.05s-3.57-1.18-3.57-1.18c0,0-4.31,1.56-3.61.06s-.32-1.56-.32-1.56l-2.04-1.12c-2.04-1.12-2.98-.19-2.98-.19,0,0-.97,1.4-.39,1.91s2.25.19,2.25.19c0,0,2.98-.45,2.28,1.09s-1.31,1.18-1.53,1.12-.45-.19-.93-.73-1.5.16-1.5.16l-1.5.93s-.22.1-.61.13,0,1.44,0,1.44c0,0,1.02.16,1.34-.68s1.09-1.21,1.09-1.21c.13-.19.83.29.83.29-.77-.26-1.32,2.17-1.32,2.17"/>
    <path class="cls-8" d="M14.81,10.83c-.09.38-.21.85-.59.97-.24.07-.57-.01-.68-.21-.1-.18.06-.3.09-.76.02-.43-.12-.56,0-.74.16-.24.55-.23.59-.22.06,0,.42.02.59.29.12.19.07.4,0,.68h0Z"/>
    <path class="cls-5" d="M14.88,16.54s-.48,1.89-1.3,2.07c-.45.1-1.03-.06-1.3-.45-.22-.32-.06-.55,0-1.63.07-1.13-.08-1.35.16-1.91.09-.23.33-.8.8-.88.28-.05.52.1.64.18.73.47,1.13,1.59,1,2.62Z"/>
    <path class="cls-2" d="M13.53,12.39s.12.89,1.2,1.05c0,0,1.31-.61,6.83,1.12,0,0,1.63,1.12,4.15.96,0,0,1.29-.09,3.04,1.38,0,0,3.32,2.78,4.4,8.27.14.71.12,1.27-.16,1.79-1.41,2.62-8.34,1.08-8.79.98-.55-.11-1.1-.22-1.66-.33-.18-.16-.45-.45-.64-.87-.31-.68-.24-1.3-.19-1.55.21-.53.41-1.05.62-1.58h0c.61-.86,0-2.2,0-2.2-.8-3.73-3.38-4.18-3.38-4.18,0,0-.67-.96-4.07-.67"/>
    <path class="cls-13" d="M25.01,16.42s4-3.66,6.66-4.44c2.66-.78,2.59-.67,2.66-.78.07-.11,4.23-.47,4.75.03l-.93.46s2.31-.01,2.51.16c.2.17-2.27.53-2.27.53,0,0,2.02.51,2.33,1.06.31.55-2.46-.29-2.46-.29,0,0,.16.29-1.01,1.36,0,0-.91-.08-2.11.58-1.2.67-1.17.66-1.2.67,0,0-2.7-.38-3.23.5,0,0-.97-.27-1.9.68,0,0-1.45.22-1.44.62"/>
    <path class="cls-9" d="M32.78,24.54l3.07,1.3s3.13-.98,4.15-.22c0,0,3.76.67,4.41,2.2,0,0,2.67,1.29,1.76,2.39,0,0-1.31-.76-1.69-.51,0,0,1.24,1.87.99,2.53,0,0-1.51-2.03-2.41-1.97,0,0-1.53-.83-1.68-.17,0,0,1.66,6.94,1.05,7.67s.05-1.57-2.17-4.93c0,0-.07,2.51-.51,2.77s-.5-2.78-1.69-2.73c0,0-.05-1.67-.61-1.6,0,0-1.52-.16-3.49-1.13l-1.89-1.15-.46-1.98"/>
    <path class="cls-7" d="M8.64,10.41c0,.69.54,1.3,1.2,1.38.47.06.92-.16,1.2-.49.29-.35.3-.74.31-.87.01-.52-.25-1.2-.8-1.39-.3-.11-.57-.03-.71,0-.45.13-1.2.57-1.2,1.38h0Z"/>
    <path class="cls-1" d="M8.77,10.55c.2.09.42.18.45.13.05-.08-.53-.48-.48-.6.07-.14,1.05.16,2.44.67-.17.53-.58.99-1.03.96-.68-.04-1.16-.53-1.18-.55-.15-.2-.29-.52-.2-.6h0Z"/>
    <path class="cls-6" d="M11.92,12.85l1.42-.34s.81,1.15.6,1.24-.85-.18-.85-.18l-.8,1.23v1.23"/>
    <path class="cls-3" d="M12.17,16.03l-.81-.19c.17-.61.25-1.1.28-1.45.08-.73.05-1.32.39-1.49.1-.05.19-.05.26-.04.1-.03.26-.09.46-.16.42-.16.54-.28.59-.2.17.26.61,1.05.61,1.05,0,0-1.66-.5-1.77,2.48h-.01Z"/>
    <path class="cls-8" d="M11.76,12.65s-.46.43-2.53-.49-.82-2.07-.82-2.07c.27,1.01.73,1.7,1.09,1.82.21.07.4.06.4.06.26-.01.42-.12.52-.15.22-.08.6.02,1.34.82h0Z"/>
    <path class="cls-10" d="M8.14,12.77c.92.14,1.84.28,2.75.42-.41.15-1.88.7-2.69.71-.21,0-.66,0-.75-.2,0-.02-.01-.04-.01-.09.01-.33.58-.77.69-.85h.01Z"/>
    <path class="cls-13" d="M22.48,18.09c-.72.86-2.19.95-3.12,1.17-.85.2-1.96.67-3.14,1.9,0,0-2.54,1.29-2.57,1.87,0,0-.05.09-.13.26-.05.12-.13.26-.21.43-.8,1.67-2.73,5.8-2.48,6.21l.6,1.7,1.09-1.71s-.71,3.47-.33,4.05c.37.59,2.48-3.72,2.48-3.72,0,0,2.33,2.85,1.82,3.46s.72-1.7.72-1.7l-.67-1.95s1.14,1.74,1.81,1.87l.67.14s-3.16-4.23-2.13-4.74c0,0,.13-.35.35-.85.68-1.54,2.17-4.61,3.18-3.95,1.24-1.06,1.8-1.34,2.05-1.37.03,0,.49-.03.49-.03h0s.24-3.21-.22-3.27c-.1-.01-.19.13-.28.24h.01Z"/>
    <rect class="cls-2" x="16.93" y="14.21" width="0" height="1.32"/>
    <rect class="cls-2" x="15.91" y="14.87" width="2.04" height="0"/>
    <rect class="cls-2" x="20.38" y="16.02" width="2.62" height=".15"/>
    <rect class="cls-2" x="21.69" y="14.87" width="0" height="2.08"/>
    <rect class="cls-2" x="23.39" y="24.58" width="3.12" height="0"/>
    <rect class="cls-2" x="25.01" y="23.13" width="0" height="2.81"/>
  </g>
</svg>