<?xml version="1.0" encoding="UTF-8"?>
<svg id="_Слой_2" data-name=" Слой 2" xmlns="http://www.w3.org/2000/svg" viewBox="0 0 48.89 41.36">
  <defs>
    <style>
      .cls-1 {
        fill: #190d07;
      }

      .cls-1, .cls-2, .cls-3, .cls-4, .cls-5, .cls-6, .cls-7, .cls-8, .cls-9, .cls-10, .cls-11, .cls-12 {
        stroke: #000;
        stroke-miterlimit: 10;
        stroke-width: .25px;
      }

      .cls-2 {
        fill: #ffc408;
      }

      .cls-3 {
        fill: #845920;
      }

      .cls-4 {
        fill: #721a19;
      }

      .cls-5 {
        fill: #331a0e;
      }

      .cls-6 {
        fill: none;
      }

      .cls-7 {
        fill: #aa6b43;
      }

      .cls-8 {
        fill: #6d510b;
      }

      .cls-13 {
        opacity: 0;
      }

      .cls-9 {
        fill: #07160e;
      }

      .cls-10 {
        fill: #1c1703;
      }

      .cls-11 {
        fill: #cecece;
      }

      .cls-12 {
        fill: #fff;
      }
    </style>
  </defs>
  <g id="_Слой_3" data-name=" Слой 3" class="cls-13">
    <rect class="cls-12" x=".12" y=".12" width="48.64" height="41.11" rx="12" ry="12"/>
  </g>
  <g id="_Шаблон" data-name=" Шаблон">
    <path class="cls-2" d="M31.12,28.06l-.19,1.06s.15-.43-.09,0l-.23.43s.09-.17-.15.13l-.23.3c-2.49,0-2.03-.15-2.49,0,0,0,3.25.15,2.33.51,0,0-2.69.72-2.69.91l2.83-.53c-.62,2.57-.85,2.32-.62,2.57l1.06-2.43v-.53l.47-.98s.74.11.96-.06c.22-.17-.87-.26-.87-.26l.23-1.25"/>
  </g>
  <g id="_Слой_2-2" data-name=" Слой 2-2">
    <path class="cls-2" d="M27.41,27.99l-.13,1.07s.12-.43-.08,0l-.21.44s.08-.17-.14.14l-.22.31c-2.49.14-2.04-.04-2.49.14,0,0,3.26-.04,2.35.38,0,0-2.64.88-2.63,1.07l2.79-.69c-.47,2.61-.72,2.36-.47,2.61l.92-2.48-.03-.53.41-1s.75.06.95-.12-.89-.2-.89-.2l.16-1.26"/>
    <path class="cls-2" d="M2.57,11.67c1.23-.88,2.29-1.25,3.06-1.43.88-.21,2.43-.41,2.43-.41h0s-.54,1.5,0,1.76,0,.38,2.71,1.18c0,0,.13.29.93,0l-.8.29s-2.11.1-4.37-.7c-1.67-.76-2.6-.62-3.16-.29-.61.36-.95,1.07-1.09.99-.14-.07.07-.76.3-1.39Z"/>
    <path class="cls-2" d="M7.6,13.84c-.29.3-.75.71-1.38,1.1-1.51.93-3,1.07-2.98,1.2.02.1.88.04,1.28,0,1.96-.2,2.74-.39,3.61-.44.65-.04,1.63-.03,2.85.29-.05-.29-.08-.7.01-1.19.18-.91.7-1.5.95-1.74-1.91.23-2.82.46-3.29.63-.13.05-.54.21-1.05.16-.17-.02-.31-.06-.44-.1-.09-.03-.17-.06-.23-.09.06-.13.15-.29.29-.45.14-.17.28-.28.37-.35.08-.06.16-.11.22-.14"/>
    <path class="cls-4" d="M11.68,12.76s3.06-.93,3.5-1.44,3.11,1.34,3.11,1.34l1.95.73s1.56.67,3.51,0,.38-1.72-.89-2.68-4.34-.54-4.34-.54c0,0-3.03-1.56-2.01-2.49,1.02-.93,1.63-.45,1.63-.45.61-.29,1.44.83,1.44.83,0,0,.8-.06.77-1.05s-3.57-1.18-3.57-1.18c0,0-4.31,1.56-3.61.06s-.32-1.56-.32-1.56l-2.04-1.12c-2.04-1.12-2.98-.19-2.98-.19,0,0-.97,1.4-.39,1.91s2.25.19,2.25.19c0,0,2.98-.45,2.28,1.09s-1.31,1.18-1.53,1.12-.45-.19-.93-.73-1.5.16-1.5.16l-1.5.93s-.22.1-.61.13,0,1.44,0,1.44c0,0,1.02.16,1.34-.68s1.09-1.21,1.09-1.21c.13-.19.83.29.83.29-.77-.26-1.32,2.17-1.32,2.17"/>
    <path class="cls-8" d="M14.46,10.79c-.09.38-.21.85-.59.97-.24.07-.57-.01-.68-.21-.1-.18.06-.3.09-.76.02-.43-.12-.56,0-.74.16-.24.55-.23.59-.22.06,0,.42.02.59.29.12.19.07.4,0,.68h0Z"/>
    <path class="cls-4" d="M14.53,16.49s-.48,1.89-1.3,2.07c-.45.1-1.03-.06-1.3-.45-.22-.32-.06-.55,0-1.63.07-1.13-.08-1.35.16-1.91.09-.23.33-.8.8-.88.28-.05.52.1.64.18.73.47,1.13,1.59,1,2.62Z"/>
    <path class="cls-3" d="M13.19,12.34s.12.89,1.2,1.05c0,0,1.31-.61,6.83,1.12,0,0,1.63,1.12,4.15.96,0,0,1.29-.09,3.04,1.38,0,0,3.32,2.78,4.4,8.27s-10.35,3.44-10.35,3.44l-1.37-1.09c-1.15-.45-.7-2.74-.7-2.74,1.05-1.47,1.6-1.18,1.6-1.18.61-.86,0-2.2,0-2.2-.8-3.73-3.38-4.18-3.38-4.18,0,0-.67-.96-4.07-.67"/>
    <path class="cls-5" d="M25.17,16.54s3.13-2.77,5.19-3.34,2.01-.49,2.06-.58,3.28-.33,3.67.05l-.72.34s1.78,0,1.93.14-1.76.39-1.76.39c0,0,1.55.41,1.79.83.24.42-1.9-.24-1.9-.24,0,0,.12.22-.8,1.04,0,0-.7-.07-1.64.43s-.91.5-.93.5c0,0-2.09-.31-2.5.36,0,0-.74-.22-1.48.51,0,0-1.12.15-1.12.46"/>
    <path class="cls-9" d="M32.74,24.54l2.52,1.2s2.57-.9,3.41-.2c0,0,3.09.62,3.62,2.02,0,0,2.19,1.19,1.45,2.2,0,0-1.08-.7-1.39-.47,0,0,1.02,1.72.81,2.33,0,0-1.24-1.87-1.98-1.81,0,0-1.26-.76-1.38-.16,0,0,1.36,6.38.86,7.05s.04-1.44-1.78-4.53c0,0-.06,2.31-.42,2.55s-.41-2.56-1.39-2.51c0,0-.04-1.54-.5-1.47,0,0-1.25-.15-2.87-1.04l-1.55-1.06-.38-1.82"/>
    <path class="cls-7" d="M8.3,10.37c0,.69.54,1.3,1.2,1.38.47.06.92-.16,1.2-.49.29-.35.3-.74.31-.87.01-.52-.25-1.2-.8-1.39-.3-.11-.57-.03-.71,0-.45.13-1.2.57-1.2,1.38h0Z"/>
    <path class="cls-11" d="M8.42,10.51c.13-.23.28-.38.4-.47.86-.64,2.12-.03,2.19,0-.09.94-.68,1.6-1.21,1.63-.33.02-.84-.21-1.18-.55,0,0,0,0,0,0-.07-.2-.13-.41-.2-.61Z"/>
    <path class="cls-6" d="M11.57,12.8l1.42-.34s.81,1.15.6,1.24-.85-.18-.85-.18l-.8,1.23v1.23"/>
    <path class="cls-1" d="M11.82,15.98l-.81-.19c.17-.61.25-1.1.28-1.45.08-.73.05-1.32.39-1.49.1-.05.19-.05.26-.04.1-.03.26-.09.46-.16.42-.16.54-.28.59-.2.17.26.61,1.05.61,1.05,0,0-1.66-.5-1.77,2.48h-.01Z"/>
    <path class="cls-8" d="M11.41,12.6s-.46.43-2.53-.49-.82-2.07-.82-2.07c.27,1.01.73,1.7,1.09,1.82.21.07.4.06.4.06.26-.01.42-.12.52-.15.22-.08.6.02,1.34.82h0Z"/>
    <path class="cls-10" d="M7.8,12.72c.92.14,1.84.28,2.75.42-.41.15-1.88.7-2.69.71-.21,0-.66,0-.75-.2,0-.02-.01-.04-.01-.09.01-.33.58-.77.69-.85h.01Z"/>
    <path class="cls-5" d="M23.12,17.2c-.72.69-1.86.53-2.61.59-.68.05-1.63.31-2.77,1.27,0,0-2.19.8-2.32,1.34,0,0-.06.08-.15.22-.06.1-.15.22-.24.37-.93,1.43-3.21,4.97-3.09,5.39l.13,1.68,1.16-1.42s-1.21,3.12-1.04,3.73c.17.61,2.61-3.07,2.61-3.07,0,0,1.23,3.02.72,3.51s.88-1.47.88-1.47l-.13-1.93s.53,1.81,1.02,2.03l.48.23s-1.59-4.45-.71-4.75c0,0,.17-.3.43-.74.82-1.33,2.55-3.95,3.19-3.18,1.16-.79,1.63-.97,1.83-.95.02,0,.38.05.38.05h0s.81-2.96.47-3.08c-.08-.03-.17.09-.26.18h.01Z"/>
  </g>
</svg>