<?xml version="1.0" encoding="UTF-8"?>
<svg id="_Слой_2" data-name="Слой 2" xmlns="http://www.w3.org/2000/svg" viewBox="0 0 48.89 41.36">
  <defs>
    <style>
      .cls-1 {
        fill: #aaa9a9;
      }

      .cls-1, .cls-2, .cls-3, .cls-4, .cls-5, .cls-6, .cls-7, .cls-8, .cls-9, .cls-10, .cls-11, .cls-12, .cls-13 {
        stroke: #000;
        stroke-miterlimit: 10;
        stroke-width: .25px;
      }

      .cls-2 {
        fill: #875000;
      }

      .cls-3 {
        fill: #190d07;
      }

      .cls-4 {
        fill: #ffc408;
      }

      .cls-5 {
        fill: #721a19;
      }

      .cls-6 {
        fill: none;
      }

      .cls-7 {
        fill: #aa6b43;
      }

      .cls-8 {
        fill: #6d510b;
      }

      .cls-14 {
        opacity: 0;
      }

      .cls-9 {
        fill: #07160e;
      }

      .cls-10 {
        fill: #1c1703;
      }

      .cls-11 {
        fill: #fff;
      }

      .cls-12 {
        fill: #b29000;
      }

      .cls-13 {
        fill: #7f3a18;
      }
    </style>
  </defs>
  <g id="_Слой_3" data-name="Слой 3" class="cls-14">
    <rect class="cls-11" x=".13" y=".12" width="48.64" height="41.11" rx="12" ry="12"/>
  </g>
  <g id="_Шаблон" data-name="Шаблон">
    <path class="cls-4" d="M29.44,28.63l-.19,1.06s.15-.43-.09,0l-.23.43s.09-.17-.15.13l-.23.3c-2.49,0-2.03-.15-2.49,0,0,0,3.25.15,2.33.51,0,0-2.69.72-2.69.91l2.83-.53c-.62,2.57-.85,2.32-.62,2.57l1.06-2.43v-.53l.47-.98s.74.11.96-.06-.87-.26-.87-.26l.23-1.25"/>
  </g>
  <g id="_Слой_2-2" data-name="Слой 2">
    <path class="cls-4" d="M24.63,28.6l-.13,1.07s.12-.43-.08,0l-.21.44s.08-.17-.14.14l-.22.31c-2.49.14-2.04-.04-2.49.14,0,0,3.26-.04,2.35.38,0,0-2.64.88-2.63,1.07l2.79-.69c-.47,2.61-.72,2.36-.47,2.61l.92-2.48-.03-.53.41-1s.75.06.95-.12-.89-.2-.89-.2l.16-1.26"/>
    <path class="cls-12" d="M3.54,11.81s.7-1.53,2.43-1.53,2.43-.41,2.43-.41c0,0-.54,1.5,0,1.76s0,.38,2.71,1.18c0,0,.13.29.93,0l-.8.29s-2.11.1-4.37-.7c0,0-2.81-.89-3.16-.29s-.16-.29-.16-.29Z"/>
    <path class="cls-12" d="M6.86,12.38c-.29.25-.73.59-1.31.88-.85.43-1.52.51-1.53.78,0,.12.12.29.7.51.97.43,2.24.89,3.76,1.18,1.06.2,2.02.28,2.85.29-.05-.29-.08-.7.01-1.19.18-.91.7-1.5.95-1.74-1.91.23-2.82.46-3.29.63-.13.05-.54.21-1.05.16-.17-.02-.31-.06-.44-.1-.09-.03-.17-.06-.23-.09.06-.13.15-.29.29-.45.21-.25.43-.4.59-.49"/>
    <path class="cls-5" d="M12.03,12.8s3.06-.93,3.5-1.44,3.11,1.34,3.11,1.34l1.95.73s1.56.67,3.51,0,.38-1.72-.89-2.68-4.34-.54-4.34-.54c0,0-3.03-1.56-2.01-2.49s1.63-.45,1.63-.45c.61-.29,1.44.83,1.44.83,0,0,.8-.06.77-1.05s-3.57-1.18-3.57-1.18c0,0-4.31,1.56-3.61.06s-.32-1.56-.32-1.56l-2.04-1.12c-2.04-1.12-2.98-.19-2.98-.19,0,0-.97,1.4-.39,1.91s2.25.19,2.25.19c0,0,2.98-.45,2.28,1.09s-1.31,1.18-1.53,1.12-.45-.19-.93-.73-1.5.16-1.5.16l-1.5.93s-.22.1-.61.13,0,1.44,0,1.44c0,0,1.02.16,1.34-.68s1.09-1.21,1.09-1.21c.13-.19.83.29.83.29-.77-.26-1.32,2.17-1.32,2.17"/>
    <path class="cls-8" d="M14.81,10.83c-.09.38-.21.85-.59.97-.24.07-.57-.01-.68-.21-.1-.18.06-.3.09-.76.02-.43-.12-.56,0-.74.16-.24.55-.23.59-.22.06,0,.42.02.59.29.12.19.07.4,0,.68Z"/>
    <path class="cls-5" d="M14.88,16.53s-.48,1.89-1.3,2.07c-.45.1-1.03-.06-1.3-.45-.22-.32-.06-.55,0-1.63.07-1.13-.08-1.35.16-1.91.09-.23.33-.8.8-.88.28-.05.52.1.64.18.73.47,1.13,1.59,1,2.62Z"/>
    <path class="cls-2" d="M13.54,12.38s.12.89,1.2,1.05c0,0,1.31-.61,6.83,1.12,0,0,1.63,1.12,4.15.96,0,0,1.29-.09,3.04,1.38,0,0,3.32,2.78,4.4,8.27s-10.35,3.44-10.35,3.44l-1.37-1.09c-1.15-.45-.7-2.74-.7-2.74,1.05-1.47,1.6-1.18,1.6-1.18.61-.86,0-2.2,0-2.2-.8-3.73-3.38-4.18-3.38-4.18,0,0-.67-.96-4.07-.67"/>
    <path class="cls-13" d="M26.01,16.34s2.69-3.2,4.64-4.07c1.96-.87,1.91-.78,1.96-.87s3.19-.81,3.64-.49l-.66.45s1.77-.26,1.94-.15c.17.11-1.68.64-1.68.64,0,0,1.6.17,1.89.55.3.38-1.91.04-1.91.04,0,0,.15.2-.64,1.14,0,0-.7.03-1.55.67s-.83.62-.85.64c0,0-2.11,0-2.43.72,0,0-.77-.11-1.38.72,0,0-1.09.32-1.04.62"/>
    <path class="cls-9" d="M32.68,24.53l2.76.45s2.22-1.58,3.22-1.14c0,0,3.14-.27,4.04.92,0,0,2.43.53,2.01,1.71,0,0-1.23-.38-1.47-.06,0,0,1.46,1.36,1.43,2.01,0,0-1.71-1.45-2.41-1.18,0,0-1.42-.38-1.37.23,0,0,3.09,5.74,2.79,6.53s-.36-1.39-2.98-3.85c0,0,.59,2.24.31,2.57s-1.11-2.35-2.03-2.02c0,0-.47-1.47-.89-1.27,0,0-1.24.21-3.05-.2l-1.79-.58-.88-1.64"/>
    <path class="cls-7" d="M8.65,10.41c0,.69.54,1.3,1.2,1.38.47.06.92-.16,1.2-.49.29-.35.3-.74.31-.87.01-.52-.25-1.2-.8-1.39-.3-.11-.57-.03-.71,0-.45.13-1.2.57-1.2,1.38Z"/>
    <path class="cls-1" d="M8.77,10.55c.08-.08.33.06.45.13.35.18.94.31,1.96.07-.08.15-.51.99-1.03.96-.68-.04-1.16-.53-1.18-.55-.15-.2-.29-.52-.2-.6Z"/>
    <path class="cls-6" d="M11.92,12.84l1.42-.34s.81,1.15.6,1.24-.85-.18-.85-.18l-.8,1.23v1.23"/>
    <path class="cls-3" d="M12.17,16.02l-.81-.19c.17-.61.25-1.1.28-1.45.08-.73.05-1.32.39-1.49.1-.05.19-.05.26-.04.1-.03.26-.09.46-.16.42-.16.54-.28.59-.2.17.26.61,1.05.61,1.05,0,0-1.66-.5-1.77,2.48Z"/>
    <path class="cls-8" d="M11.76,12.64s-.46.43-2.53-.49c-2.07-.92-.82-2.07-.82-2.07.27,1.01.73,1.7,1.09,1.82.21.07.4.06.4.06.26-.01.42-.12.52-.15.22-.08.6.02,1.34.82Z"/>
    <path class="cls-10" d="M8.15,12.76c.92.14,1.84.28,2.75.42-.41.15-1.88.7-2.69.71-.21,0-.66,0-.75-.2,0-.02-.01-.04-.01-.09.01-.33.58-.77.69-.85Z"/>
    <path class="cls-13" d="M23.87,18.08c-.86.48-1.93.05-2.67-.08-.67-.12-1.66-.1-3,.54,0,0-2.32.23-2.58.71,0,0-.07.06-.2.18-.09.08-.2.18-.33.3-1.26,1.15-4.35,4.01-4.35,4.45l-.29,1.66,1.49-1.09s-1.95,2.72-1.94,3.34c0,.63,3.3-2.32,3.3-2.32,0,0,.43,3.24-.18,3.58-.61.34,1.22-1.2,1.22-1.2l.36-1.9s.07,1.88.48,2.23l.41.34s-.43-4.7.5-4.78c0,0,.24-.25.6-.6,1.12-1.09,3.46-3.19,3.88-2.28,1.32-.47,1.82-.53,2.01-.46.01,0,.35.14.35.14h0s1.52-2.66,1.23-2.87c-.06-.04-.18.04-.3.11Z"/>
  </g>
</svg>