<?xml version="1.0" encoding="UTF-8"?>
<svg id="_Слой_2" data-name="Слой 2" xmlns="http://www.w3.org/2000/svg" viewBox="0 0 48.89 41.36">
  <defs>
    <style>
      .cls-1 {
        fill: #aaa9a9;
      }

      .cls-1, .cls-2, .cls-3, .cls-4, .cls-5, .cls-6, .cls-7, .cls-8, .cls-9, .cls-10, .cls-11, .cls-12, .cls-13 {
        stroke: #000;
        stroke-miterlimit: 10;
        stroke-width: .25px;
      }

      .cls-2 {
        fill: #875000;
      }

      .cls-3 {
        fill: #190d07;
      }

      .cls-4 {
        fill: #ffc408;
      }

      .cls-5 {
        fill: #721a19;
      }

      .cls-6 {
        fill: none;
      }

      .cls-7 {
        fill: #aa6b43;
      }

      .cls-8 {
        fill: #6d510b;
      }

      .cls-14 {
        opacity: 0;
      }

      .cls-9 {
        fill: #07160e;
      }

      .cls-10 {
        fill: #1c1703;
      }

      .cls-11 {
        fill: #fff;
      }

      .cls-12 {
        fill: #b29000;
      }

      .cls-13 {
        fill: #7f3a18;
      }
    </style>
  </defs>
  <g id="_Слой_3" data-name="Слой 3" class="cls-14">
    <rect class="cls-11" x=".13" y=".12" width="48.64" height="41.11" rx="12" ry="12"/>
  </g>
  <g id="_Шаблон" data-name="Шаблон">
    <path class="cls-4" d="M27.97,28.98l-.19,1.06s.15-.43-.09,0l-.23.43s.09-.17-.15.13l-.23.3c-2.49,0-2.03-.15-2.49,0,0,0,3.25.15,2.33.51,0,0-2.69.72-2.69.91l2.83-.53c-.62,2.57-.85,2.32-.62,2.57l1.06-2.43v-.53l.47-.98s.74.11.96-.06-.87-.26-.87-.26l.23-1.25"/>
  </g>
  <g id="_Слой_2-2" data-name="Слой 2">
    <path class="cls-4" d="M23.45,28.79l-.13,1.07s.12-.43-.08,0l-.21.44s.08-.17-.14.14l-.22.31c-2.49.14-2.04-.04-2.49.14,0,0,3.26-.04,2.35.38,0,0-2.64.88-2.63,1.07l2.79-.69c-.47,2.61-.72,2.36-.47,2.61l.92-2.48-.03-.53.41-1s.75.06.95-.12-.89-.2-.89-.2l.16-1.26"/>
    <path class="cls-12" d="M3.54,11.81s.7-1.53,2.43-1.53,2.43-.41,2.43-.41c0,0-.54,1.5,0,1.76s0,.38,2.71,1.18c0,0,.13.29.93,0l-.8.29s-2.11.1-4.37-.7c0,0-2.81-.89-3.16-.29s-.16-.29-.16-.29Z"/>
    <path class="cls-12" d="M6.86,12.38c-.29.25-.73.59-1.31.88-.85.43-1.52.51-1.53.78,0,.12.12.29.7.51.97.43,2.24.89,3.76,1.18,1.06.2,2.02.28,2.85.29-.05-.29-.08-.7.01-1.19.18-.91.7-1.5.95-1.74-1.91.23-2.82.46-3.29.63-.13.05-.54.21-1.05.16-.17-.02-.31-.06-.44-.1-.09-.03-.17-.06-.23-.09.06-.13.15-.29.29-.45.21-.25.43-.4.59-.49"/>
    <path class="cls-5" d="M12.03,12.8s3.06-.93,3.5-1.44,3.11,1.34,3.11,1.34l1.95.73s1.56.67,3.51,0,.38-1.72-.89-2.68-4.34-.54-4.34-.54c0,0-3.03-1.56-2.01-2.49s1.63-.45,1.63-.45c.61-.29,1.44.83,1.44.83,0,0,.8-.06.77-1.05s-3.57-1.18-3.57-1.18c0,0-4.31,1.56-3.61.06s-.32-1.56-.32-1.56l-2.04-1.12c-2.04-1.12-2.98-.19-2.98-.19,0,0-.97,1.4-.39,1.91s2.25.19,2.25.19c0,0,2.98-.45,2.28,1.09s-1.31,1.18-1.53,1.12-.45-.19-.93-.73-1.5.16-1.5.16l-1.5.93s-.22.1-.61.13,0,1.44,0,1.44c0,0,1.02.16,1.34-.68s1.09-1.21,1.09-1.21c.13-.19.83.29.83.29-.77-.26-1.32,2.17-1.32,2.17"/>
    <path class="cls-8" d="M14.81,10.83c-.09.38-.21.85-.59.97-.24.07-.57-.01-.68-.21-.1-.18.06-.3.09-.76.02-.43-.12-.56,0-.74.16-.24.55-.23.59-.22.06,0,.42.02.59.29.12.19.07.4,0,.68Z"/>
    <path class="cls-5" d="M14.88,16.53s-.48,1.89-1.3,2.07c-.45.1-1.03-.06-1.3-.45-.22-.32-.06-.55,0-1.63.07-1.13-.08-1.35.16-1.91.09-.23.33-.8.8-.88.28-.05.52.1.64.18.73.47,1.13,1.59,1,2.62Z"/>
    <path class="cls-2" d="M13.54,12.38s.12.89,1.2,1.05c0,0,1.31-.61,6.83,1.12,0,0,1.63,1.12,4.15.96,0,0,1.29-.09,3.04,1.38,0,0,3.32,2.78,4.4,8.27s-10.35,3.44-10.35,3.44l-1.37-1.09c-1.15-.45-.7-2.74-.7-2.74,1.05-1.47,1.6-1.18,1.6-1.18.61-.86,0-2.2,0-2.2-.8-3.73-3.38-4.18-3.38-4.18,0,0-.67-.96-4.07-.67"/>
    <path class="cls-13" d="M24.44,16.12s1.69-3.82,3.32-5.2c1.64-1.38,1.62-1.29,1.64-1.38s2.84-1.67,3.36-1.49l-.51.61s1.62-.74,1.82-.68c.19.05-1.44,1.08-1.44,1.08,0,0,1.58-.28,1.97,0,.39.28-1.83.58-1.83.58,0,0,.2.15-.29,1.27,0,0-.67.22-1.3,1.08s-.62.83-.64.85c0,0-2.02.59-2.13,1.37,0,0-.77.11-1.13,1.08,0,0-.95.61-.83.88"/>
    <path class="cls-9" d="M32.7,24.57l3.04.48s2.44-1.63,3.55-1.17c0,0,3.47-.27,4.46.97,0,0,2.69.56,2.22,1.78,0,0-1.36-.39-1.62-.07,0,0,1.61,1.42,1.59,2.1,0,0-1.89-1.51-2.66-1.24,0,0-1.57-.4-1.51.24,0,0,3.43,5.97,3.1,6.79s-.4-1.45-3.3-4.01c0,0,.66,2.32.35,2.67s-1.24-2.44-2.25-2.11c0,0-.52-1.53-.99-1.32,0,0-1.37.21-3.37-.21l-1.98-.61-.97-1.71"/>
    <path class="cls-7" d="M8.65,10.41c0,.69.54,1.3,1.2,1.38.47.06.92-.16,1.2-.49.29-.35.3-.74.31-.87.01-.52-.25-1.2-.8-1.39-.3-.11-.57-.03-.71,0-.45.13-1.2.57-1.2,1.38Z"/>
    <path class="cls-1" d="M8.77,10.55c.08-.08.33.06.45.13.35.18.94.31,1.96.07-.08.15-.51.99-1.03.96-.68-.04-1.16-.53-1.18-.55-.15-.2-.29-.52-.2-.6Z"/>
    <path class="cls-6" d="M11.92,12.84l1.42-.34s.81,1.15.6,1.24-.85-.18-.85-.18l-.8,1.23v1.23"/>
    <path class="cls-3" d="M12.17,16.02l-.81-.19c.17-.61.25-1.1.28-1.45.08-.73.05-1.32.39-1.49.1-.05.19-.05.26-.04.1-.03.26-.09.46-.16.42-.16.54-.28.59-.2.17.26.61,1.05.61,1.05,0,0-1.66-.5-1.77,2.48Z"/>
    <path class="cls-8" d="M11.76,12.64s-.46.43-2.53-.49c-2.07-.92-.82-2.07-.82-2.07.27,1.01.73,1.7,1.09,1.82.21.07.4.06.4.06.26-.01.42-.12.52-.15.22-.08.6.02,1.34.82Z"/>
    <path class="cls-10" d="M8.15,12.76c.92.14,1.84.28,2.75.42-.41.15-1.88.7-2.69.71-.21,0-.66,0-.75-.2,0-.02-.01-.04-.01-.09.01-.33.58-.77.69-.85Z"/>
    <path class="cls-13" d="M24.63,17.78c-.99.05-1.75-.8-2.36-1.25-.55-.41-1.44-.82-2.93-.83,0,0-2.19-.81-2.63-.5,0,0-.09.03-.26.07-.11.03-.26.07-.43.12-1.64.48-5.67,1.69-5.86,2.08l-.99,1.36,1.81-.32s-2.95,1.58-3.22,2.15c-.27.57,3.99-.63,3.99-.63,0,0-1.04,3.1-1.73,3.14-.7.04,1.63-.54,1.63-.54l1.16-1.55s-.77,1.72-.55,2.21l.22.49s1.69-4.41,2.56-4.07c0,0,.32-.12.81-.28,1.49-.48,4.51-1.34,4.49-.33,1.39.16,1.87.33,2,.47.01.01.25.28.25.28h0s2.54-1.72,2.36-2.03c-.04-.07-.18-.04-.32-.04Z"/>
  </g>
</svg>