<?xml version="1.0" encoding="UTF-8"?>
<svg id="_Слой_2" data-name="Слой 2" xmlns="http://www.w3.org/2000/svg" viewBox="0 0 73.49 302.78">
  <defs>
    <style>
      .cls-1 {
        fill: #299cb7;
      }

      .cls-2 {
        fill: #7a3a00;
        font-family: PerpetuaTitlingMT-Light, 'Perpetua Titling MT';
        font-size: 56.09px;
        font-weight: 300;
      }

      .cls-3 {
        fill: #e0ba94;
        stroke: #dd3131;
      }

      .cls-3, .cls-4 {
        stroke-miterlimit: 10;
      }

      .cls-4 {
        fill: #ad7a4d;
        stroke: #d81d2f;
      }
    </style>
  </defs>
  <g id="_Слой_2-2" data-name="Слой 2">
    <path class="cls-3" d="M72.96,151.07s1.82,66.13-21.12,143.29c-.69,2.3-1.95,5.75-4.9,7.28-2.62,1.36-3.96-.16-10.19,0-5.47.14-7.03,1.37-9.43,0-1.09-.62-2.66-1.95-3.85-5.41C-1.34,224.21.53,151.07.53,151.07c0-37.92,2.31-54.36,4.9-68.33,2.79-15.05,6.14-25.54,12.83-46.54.16-.52-.06.18,11.69-26.25,2.23-5.01,4.23-9.52,6.79-9.44,2.63.08,4.36,4.96,6.41,10.24,7.39,19.04,4.87,7.14,11.32,25.86,5.85,16.97,10.44,30.28,13.96,48.53,2.38,12.35,4.53,26.7,4.53,65.95Z"/>
    <rect class="cls-1" x="26.32" y="32.85" width="3.69" height="249.26" rx=".83" ry=".83"/>
    <rect class="cls-1" x="43.17" y="32.85" width="3.69" height="249.26" rx=".83" ry=".83"/>
    <path class="cls-4" d="M44.29,13.6c-.89.77-2.75-2.15-6.72-2.7-4.67-.65-7.69,2.62-8.68,1.44-1.13-1.33,2.22-6.13,3.21-7.56,1.82-2.61,3-4.31,4.65-4.28,1.75.03,2.95,1.99,4.6,4.68,1.48,2.42,4.07,7.44,2.94,8.42Z"/>
    <text class="cls-2" transform="translate(19.43 136.42) scale(.95 1)"><tspan x="0" y="0">Z</tspan></text>
  </g>
</svg>